<?xml version="1.0" standalone="no"?>
<!DOCTYPE svg PUBLIC "-//W3C//DTD SVG 20010904//EN"
 "http://www.w3.org/TR/2001/REC-SVG-20010904/DTD/svg10.dtd">
<svg version="1.0" xmlns="http://www.w3.org/2000/svg"
 width="310.000000pt" height="310.000000pt" viewBox="0 0 310.000000 310.000000"
 preserveAspectRatio="xMidYMid meet">
<metadata>
Created by potrace 1.11, written by Peter Selinger 2001-2013
</metadata>
<g transform="translate(0.000000,310.000000) scale(0.100000,-0.100000)"
fill="#000000" stroke="none">
<path d="M970 2700 l0 -110 110 0 110 0 0 110 0 110 -110 0 -110 0 0 -110z"/>
<path d="M1484 2547 c-3 -8 -3 -56 -2 -108 l3 -94 108 -3 107 -3 0 111 0 110
-105 0 c-79 0 -107 -3 -111 -13z"/>
<path d="M2277 2523 c-4 -3 -7 -148 -7 -321 l0 -314 -28 5 c-16 3 -82 13 -148
23 -418 58 -679 -95 -769 -452 -65 -255 -52 -663 29 -876 83 -222 252 -327
527 -328 106 0 196 19 322 68 l77 30 0 -34 0 -34 210 0 210 0 0 1120 0 1120
-208 0 c-115 0 -212 -3 -215 -7z m-97 -986 l85 -12 3 -417 2 -417 -37 -10
c-129 -33 -308 -42 -366 -17 -103 44 -147 169 -147 422 0 249 49 392 152 443
50 25 165 27 308 8z"/>
<path d="M817 2373 c-4 -3 -7 -53 -7 -110 l0 -103 109 0 110 0 3 106 c2 58 1
108 -1 110 -7 7 -207 4 -214 -3z"/>
<path d="M1940 2190 l0 -111 108 3 107 3 3 108 3 107 -111 0 -110 0 0 -110z"/>
<path d="M1110 1940 l0 -110 110 0 111 0 -3 108 -3 107 -107 3 -108 3 0 -111z"/>
<path d="M860 1195 l0 -105 110 0 110 0 0 105 0 105 -110 0 -110 0 0 -105z"/>
<path d="M580 850 l0 -110 105 0 105 0 0 110 0 110 -105 0 -105 0 0 -110z"/>
<path d="M910 450 l0 -110 110 0 110 0 0 110 0 110 -110 0 -110 0 0 -110z"/>
<path d="M340 430 l0 -111 108 3 107 3 3 108 3 107 -111 0 -110 0 0 -110z"/>
</g>
</svg>
